<svg width="20" height="20" viewBox="0 0 20 20" fill="none" xmlns="http://www.w3.org/2000/svg">
<path d="M17.3671 3.84165C16.9415 3.41582 16.4361 3.07802 15.8799 2.84755C15.3237 2.61708 14.7275 2.49846 14.1254 2.49846C13.5234 2.49846 12.9272 2.61708 12.371 2.84755C11.8147 3.07802 11.3094 3.41582 10.8838 3.84165L10.0004 4.72498L9.11709 3.84165C8.25735 2.9819 7.09129 2.4989 5.87542 2.4989C4.65956 2.4989 3.4935 2.9819 2.63376 3.84165C1.77401 4.70139 1.29102 5.86745 1.29102 7.08331C1.29102 8.29917 1.77401 9.46524 2.63376 10.325L3.51709 11.2083L10.0004 17.6916L16.4838 11.2083L17.3671 10.325C17.7929 9.89935 18.1307 9.39399 18.3612 8.83778C18.5917 8.28156 18.7103 7.68539 18.7103 7.08331C18.7103 6.48124 18.5917 5.88507 18.3612 5.32885C18.1307 4.77264 17.7929 4.26728 17.3671 3.84165V3.84165Z" stroke="#25282B" stroke-width="2" stroke-linecap="round" stroke-linejoin="round"/>
</svg>
