<svg width="24" height="25" viewBox="0 0 24 25" fill="none" xmlns="http://www.w3.org/2000/svg">
<path d="M12 16.777C14.2091 16.777 16 14.9769 16 12.7564C16 10.5359 14.2091 8.73584 12 8.73584C9.79086 8.73584 8 10.5359 8 12.7564C8 14.9769 9.79086 16.777 12 16.777Z" stroke="#1C1C1C" stroke-linecap="round" stroke-linejoin="round"/>
<path d="M16 8.73582V13.7616C16 14.5613 16.3161 15.3283 16.8787 15.8938C17.4413 16.4593 18.2044 16.777 19 16.777C19.7957 16.777 20.5587 16.4593 21.1213 15.8938C21.6839 15.3283 22 14.5613 22 13.7616V12.7564C21.9999 10.4878 21.2362 8.286 19.8333 6.50895C18.4303 4.73191 16.4706 3.48416 14.2726 2.96859C12.0747 2.45302 9.76794 2.69996 7.72736 3.66925C5.68677 4.63854 4.03241 6.27317 3.03327 8.30735C2.03413 10.3415 1.74898 12.6556 2.22418 14.8734C2.69938 17.0911 3.90699 19.082 5.65064 20.5224C7.39429 21.9629 9.57144 22.768 11.8281 22.807C14.0847 22.846 16.2881 22.1166 18.08 20.7373" stroke="#1C1C1C" stroke-linecap="round" stroke-linejoin="round"/>
</svg>
