<svg width="24" height="25" viewBox="0 0 24 25" fill="none" xmlns="http://www.w3.org/2000/svg">
<path d="M17 2.7168H7C4.23858 2.7168 2 4.9669 2 7.74253V17.794C2 20.5696 4.23858 22.8197 7 22.8197H17C19.7614 22.8197 22 20.5696 22 17.794V7.74253C22 4.9669 19.7614 2.7168 17 2.7168Z" stroke="#1C1C1C" stroke-width="2" stroke-linecap="round" stroke-linejoin="round"/>
<path d="M15.9997 12.1352C16.1231 12.9717 15.981 13.8261 15.5935 14.5767C15.206 15.3273 14.5929 15.9361 13.8413 16.3163C13.0898 16.6965 12.2382 16.8288 11.4075 16.6945C10.5768 16.5601 9.80947 16.1659 9.21455 15.5679C8.61962 14.9699 8.22744 14.1986 8.09377 13.3637C7.96011 12.5288 8.09177 11.6727 8.47003 10.9173C8.84829 10.1619 9.45389 9.54566 10.2007 9.15617C10.9475 8.76668 11.7975 8.62379 12.6297 8.74784C13.4786 8.87437 14.2646 9.27199 14.8714 9.88195C15.4782 10.4919 15.8738 11.2819 15.9997 12.1352Z" stroke="#1C1C1C" stroke-width="2" stroke-linecap="round" stroke-linejoin="round"/>
<path d="M17.5 7.23999H17.51" stroke="#1C1C1C" stroke-width="2" stroke-linecap="round" stroke-linejoin="round"/>
</svg>
