<svg width="24" height="25" viewBox="0 0 24 25" fill="none" xmlns="http://www.w3.org/2000/svg">
<path d="M16 8.75317C17.5913 8.75317 19.1174 9.38857 20.2426 10.5196C21.3679 11.6506 22 13.1846 22 14.7841V21.8201H18V14.7841C18 14.2509 17.7893 13.7396 17.4142 13.3626C17.0391 12.9856 16.5304 12.7738 16 12.7738C15.4696 12.7738 14.9609 12.9856 14.5858 13.3626C14.2107 13.7396 14 14.2509 14 14.7841V21.8201H10V14.7841C10 13.1846 10.6321 11.6506 11.7574 10.5196C12.8826 9.38857 14.4087 8.75317 16 8.75317V8.75317Z" stroke="#1C1C1C" stroke-width="2" stroke-linecap="round" stroke-linejoin="round"/>
<path d="M6 9.7583H2V21.8201H6V9.7583Z" stroke="#1C1C1C" stroke-width="2" stroke-linecap="round" stroke-linejoin="round"/>
<path d="M4 6.74276C5.10457 6.74276 6 5.84272 6 4.73246C6 3.62221 5.10457 2.72217 4 2.72217C2.89543 2.72217 2 3.62221 2 4.73246C2 5.84272 2.89543 6.74276 4 6.74276Z" stroke="#1C1C1C" stroke-width="2" stroke-linecap="round" stroke-linejoin="round"/>
</svg>
