<svg width="263" height="55" viewBox="0 0 263 55" fill="none" xmlns="http://www.w3.org/2000/svg">
<path d="M230.692 53.41H32.7516C30.4121 53.4091 28.1563 52.5396 26.4216 50.97L3.87155 30.61C3.26103 30.0591 2.77765 29.382 2.45491 28.6256C2.13218 27.8693 1.97783 27.0518 2.00257 26.2298C2.0273 25.4079 2.23052 24.6011 2.59815 23.8656C2.96578 23.13 3.48902 22.4832 4.13156 21.97L26.5316 4.07004C28.206 2.72985 30.2869 1.99974 32.4316 2H230.972C233.197 2.00036 235.35 2.78661 237.052 4.22L258.522 22.29C259.136 22.807 259.633 23.4486 259.981 24.1722C260.329 24.8959 260.519 25.6851 260.539 26.4877C260.558 27.2903 260.408 28.088 260.096 28.828C259.785 29.5679 259.319 30.2333 258.732 30.78L237.142 50.9C235.384 52.5188 233.081 53.4151 230.692 53.41Z" fill="white" stroke="#F4A0D2" stroke-width="3" stroke-miterlimit="10"/>
<path d="M52.5 25.22C53.08 25.82 53.62 25.9 54.12 25.46C54.62 25 54.72 24.42 54.18 23.8C52.88 22.44 51.22 21.76 49.24 21.76C47.14 21.76 45.42 22.44 44.04 23.78C42.68 25.12 42 26.86 42 29.02C42 31.14 42.68 32.88 44.06 34.22C45.44 35.56 47.2 36.22 49.32 36.22C51.4 36.22 53.08 35.54 54.38 34.16C54.92 33.54 54.82 32.96 54.32 32.5C53.82 32.06 53.28 32.14 52.7 32.74C51.86 33.6 50.74 34.04 49.36 34.04C47.94 34.04 46.78 33.56 45.84 32.62C44.9 31.66 44.44 30.46 44.44 29.02C44.44 27.56 44.9 26.34 45.82 25.38C46.74 24.42 47.9 23.94 49.28 23.94C50.64 23.94 51.72 24.36 52.5 25.22ZM64.7555 30.82H60.4955L62.6155 25.22L64.7555 30.82ZM66.5155 35.34C66.7555 35.96 67.4355 36.26 68.0555 36.02C68.6755 35.8 68.9955 35.14 68.7555 34.52L64.3155 23.2C63.9755 22.32 63.3955 21.88 62.6155 21.88C61.8555 21.88 61.3155 22.3 60.9755 23.12L56.5155 34.52C56.2755 35.14 56.5955 35.8 57.2155 36.02C57.8355 36.26 58.5155 35.96 58.7555 35.34L59.6355 33.02H65.6155L66.5155 35.34ZM76.3947 24.14C78.5747 24.14 79.6547 24.96 79.6547 26.58C79.6547 28.22 78.5747 29.04 76.3947 29.04H73.7347V24.14H76.3947ZM72.6147 21.98C71.9147 21.98 71.3547 22.52 71.3547 23.24V34.92C71.3547 35.58 71.8747 36.1 72.5347 36.1C73.1947 36.1 73.7347 35.58 73.7347 34.92V31.22H76.6947C79.9747 31.22 82.0347 29.46 82.0347 26.56C82.0347 23.68 79.9947 21.98 76.6947 21.98H72.6147ZM89.9564 34.38C90.3964 34.74 90.7764 35.02 91.0764 35.24C91.3764 35.44 91.8764 35.66 92.5564 35.88C93.2564 36.1 93.9964 36.22 94.7964 36.22C96.4564 36.22 97.7564 35.84 98.7164 35.1C99.6764 34.34 100.156 33.36 100.156 32.16C100.156 29.86 98.6964 28.32 95.6764 27.84L94.2764 27.6C92.7364 27.34 91.9564 26.7 91.9564 25.7C91.9564 24.74 92.7964 23.92 94.3964 23.92C95.4964 23.92 96.4964 24.32 97.4364 25.1C97.9364 25.52 98.6764 25.46 99.0964 24.96C99.5164 24.46 99.4364 23.7 98.8964 23.28C98.5164 22.98 98.1764 22.76 97.8764 22.58C97.5764 22.4 97.1364 22.22 96.5164 22.04C95.8964 21.86 95.2364 21.76 94.4964 21.76C93.1164 21.76 91.9564 22.12 90.9964 22.86C90.0364 23.6 89.5564 24.56 89.5564 25.76C89.5564 28.02 91.0964 29.44 93.7564 29.92L95.4564 30.2C96.9964 30.46 97.7564 31.14 97.7564 32.2C97.7564 33.3 96.7964 34.06 95.0964 34.06C93.8964 34.06 92.7964 33.62 92.3164 33.3C92.0764 33.12 91.7764 32.88 91.4364 32.58C90.9364 32.12 90.1564 32.2 89.7364 32.7C89.3164 33.2 89.4164 33.96 89.9564 34.38ZM114.193 23.06C114.193 22.4 113.653 21.88 112.993 21.88C112.332 21.88 111.793 22.4 111.793 23.06V29.78C111.793 32.64 110.713 34.06 108.533 34.06C106.353 34.06 105.273 32.64 105.273 29.8V23.04C105.273 22.38 104.733 21.88 104.073 21.88C103.413 21.88 102.873 22.4 102.873 23.06V29.78C102.873 33.96 105.073 36.22 108.533 36.22C111.993 36.22 114.193 33.96 114.193 29.78V23.06ZM122.586 24.14C124.766 24.14 125.846 24.96 125.846 26.58C125.846 28.22 124.766 29.04 122.586 29.04H119.926V24.14H122.586ZM125.426 35.44C125.886 36.16 126.446 36.3 127.126 35.88C127.706 35.5 127.866 34.94 127.446 34.16L125.366 30.82C127.186 30.12 128.226 28.62 128.226 26.56C128.226 23.68 126.186 21.98 122.886 21.98H118.806C118.106 21.98 117.546 22.52 117.546 23.24V34.92C117.546 35.58 118.066 36.1 118.726 36.1C119.386 36.1 119.926 35.58 119.926 34.92V31.22H122.826L125.426 35.44ZM138.637 23.06C138.637 22.4 138.097 21.88 137.437 21.88C136.777 21.88 136.257 22.4 136.257 23.06V34.74C136.257 35.46 136.817 36 137.517 36H144.317C144.897 36 145.397 35.52 145.397 34.9C145.397 34.32 144.917 33.84 144.297 33.84H138.637V23.06ZM148.173 23.58C148.513 22.78 148.293 22.16 147.713 21.94C146.993 21.68 146.393 22.06 146.153 22.68L144.913 25.8C144.693 26.3 144.953 26.9 145.453 27.12C145.993 27.34 146.553 27.1 146.813 26.56L148.173 23.58ZM149.933 28.98C149.933 31.04 150.613 32.76 151.953 34.14C153.313 35.52 154.993 36.22 157.013 36.22C159.033 36.22 160.713 35.52 162.093 34.14C163.473 32.76 164.153 31.04 164.153 28.98C164.153 26.94 163.473 25.22 162.093 23.84C160.713 22.46 159.033 21.76 157.013 21.76C154.993 21.76 153.313 22.46 151.953 23.84C150.613 25.22 149.933 26.94 149.933 28.98ZM152.373 28.98C152.373 27.56 152.813 26.36 153.693 25.4C154.593 24.44 155.713 23.96 157.093 23.96C158.433 23.96 159.553 24.44 160.433 25.4C161.312 26.36 161.753 27.56 161.753 28.98C161.753 30.42 161.312 31.62 160.433 32.6C159.553 33.56 158.433 34.04 157.093 34.04C155.713 34.04 154.593 33.56 153.693 32.6C152.813 31.64 152.373 30.44 152.373 28.98ZM176.992 25.22C177.572 25.82 178.112 25.9 178.612 25.46C179.112 25 179.212 24.42 178.672 23.8C177.372 22.44 175.712 21.76 173.732 21.76C171.632 21.76 169.912 22.44 168.532 23.78C167.172 25.12 166.492 26.86 166.492 29.02C166.492 31.14 167.172 32.88 168.552 34.22C169.932 35.56 171.692 36.22 173.812 36.22C175.892 36.22 177.572 35.54 178.872 34.16C179.412 33.54 179.312 32.96 178.812 32.5C178.312 32.06 177.772 32.14 177.192 32.74C176.352 33.6 175.232 34.04 173.852 34.04C172.432 34.04 171.272 33.56 170.332 32.62C169.392 31.66 168.932 30.46 168.932 29.02C168.932 27.56 169.392 26.34 170.312 25.38C171.232 24.42 172.392 23.94 173.772 23.94C175.132 23.94 176.212 24.36 176.992 25.22ZM181.98 34.74C181.98 35.46 182.54 36 183.24 36H190.96C191.54 36 192.04 35.52 192.04 34.9C192.04 34.32 191.56 33.84 190.94 33.84H184.36V29.94H190.62C191.2 29.94 191.7 29.48 191.7 28.86C191.7 28.24 191.2 27.76 190.62 27.76H184.36V24.14H190.94C191.56 24.14 192.04 23.66 192.04 23.08C192.04 22.46 191.54 21.98 190.96 21.98H183.24C182.54 21.98 181.98 22.52 181.98 23.24V34.74ZM185.42 18.84C184.78 19.08 184.58 19.78 184.84 20.26C185.1 20.8 185.58 20.96 186.32 20.72L188.8 19.9C189.52 19.64 189.68 18.84 189.36 18.3C189.04 17.72 188.42 17.54 187.7 17.88L185.42 18.84ZM202.822 30.82H198.562L200.682 25.22L202.822 30.82ZM204.582 35.34C204.822 35.96 205.502 36.26 206.122 36.02C206.742 35.8 207.062 35.14 206.822 34.52L202.382 23.2C202.042 22.32 201.462 21.88 200.682 21.88C199.922 21.88 199.382 22.3 199.042 23.12L194.582 34.52C194.342 35.14 194.662 35.8 195.282 36.02C195.902 36.26 196.582 35.96 196.822 35.34L197.702 33.02H203.682L204.582 35.34ZM218.421 35.5C218.701 35.9 219.101 36.1 219.641 36.1C220.521 36.1 221.161 35.52 221.161 34.48V23.16C221.301 21.46 218.661 21.46 218.761 23.16V31.9L212.161 22.48C211.881 22.08 211.481 21.88 210.941 21.88C210.061 21.88 209.421 22.46 209.421 23.5V34.82C209.281 36.52 211.921 36.52 211.801 34.82V26.12L218.421 35.5Z" fill="black"/>
</svg>
