<svg width="269" height="56" viewBox="0 0 269 56" fill="none" xmlns="http://www.w3.org/2000/svg">
<path d="M30.7891 53.38H266.339V2H30.7891" fill="white"/>
<path d="M30.7891 53.38H266.339V2H30.7891" stroke="#276DFF" stroke-width="4" stroke-linecap="round" stroke-linejoin="round"/>
<path d="M30.89 53.38C14.94 53.38 2 41.88 2 27.69C2 13.5 14.94 2 30.89 2" fill="white"/>
<path d="M30.89 53.38C14.94 53.38 2 41.88 2 27.69C2 13.5 14.94 2 30.89 2" stroke="#276DFF" stroke-width="4" stroke-linecap="round" stroke-linejoin="round"/>
<path d="M55 24.72C55.58 25.32 56.12 25.4 56.62 24.96C57.12 24.5 57.22 23.92 56.68 23.3C55.38 21.94 53.72 21.26 51.74 21.26C49.64 21.26 47.92 21.94 46.54 23.28C45.18 24.62 44.5 26.36 44.5 28.52C44.5 30.64 45.18 32.38 46.56 33.72C47.94 35.06 49.7 35.72 51.82 35.72C53.9 35.72 55.58 35.04 56.88 33.66C57.42 33.04 57.32 32.46 56.82 32C56.32 31.56 55.78 31.64 55.2 32.24C54.36 33.1 53.24 33.54 51.86 33.54C50.44 33.54 49.28 33.06 48.34 32.12C47.4 31.16 46.94 29.96 46.94 28.52C46.94 27.06 47.4 25.84 48.32 24.88C49.24 23.92 50.4 23.44 51.78 23.44C53.14 23.44 54.22 23.86 55 24.72ZM67.2555 30.32H62.9955L65.1155 24.72L67.2555 30.32ZM69.0155 34.84C69.2555 35.46 69.9355 35.76 70.5555 35.52C71.1755 35.3 71.4955 34.64 71.2555 34.02L66.8155 22.7C66.4755 21.82 65.8955 21.38 65.1155 21.38C64.3555 21.38 63.8155 21.8 63.4755 22.62L59.0155 34.02C58.7755 34.64 59.0955 35.3 59.7155 35.52C60.3355 35.76 61.0155 35.46 61.2555 34.84L62.1355 32.52H68.1155L69.0155 34.84ZM78.8947 23.64C81.0747 23.64 82.1547 24.46 82.1547 26.08C82.1547 27.72 81.0747 28.54 78.8947 28.54H76.2347V23.64H78.8947ZM75.1147 21.48C74.4147 21.48 73.8547 22.02 73.8547 22.74V34.42C73.8547 35.08 74.3747 35.6 75.0347 35.6C75.6947 35.6 76.2347 35.08 76.2347 34.42V30.72H79.1947C82.4747 30.72 84.5347 28.96 84.5347 26.06C84.5347 23.18 82.4947 21.48 79.1947 21.48H75.1147ZM92.4564 33.88C92.8964 34.24 93.2764 34.52 93.5764 34.74C93.8764 34.94 94.3764 35.16 95.0564 35.38C95.7564 35.6 96.4964 35.72 97.2964 35.72C98.9564 35.72 100.256 35.34 101.216 34.6C102.176 33.84 102.656 32.86 102.656 31.66C102.656 29.36 101.196 27.82 98.1764 27.34L96.7764 27.1C95.2364 26.84 94.4564 26.2 94.4564 25.2C94.4564 24.24 95.2964 23.42 96.8964 23.42C97.9964 23.42 98.9964 23.82 99.9364 24.6C100.436 25.02 101.176 24.96 101.596 24.46C102.016 23.96 101.936 23.2 101.396 22.78C101.016 22.48 100.676 22.26 100.376 22.08C100.076 21.9 99.6364 21.72 99.0164 21.54C98.3964 21.36 97.7364 21.26 96.9964 21.26C95.6164 21.26 94.4564 21.62 93.4964 22.36C92.5364 23.1 92.0564 24.06 92.0564 25.26C92.0564 27.52 93.5964 28.94 96.2564 29.42L97.9564 29.7C99.4964 29.96 100.256 30.64 100.256 31.7C100.256 32.8 99.2964 33.56 97.5964 33.56C96.3964 33.56 95.2964 33.12 94.8164 32.8C94.5764 32.62 94.2764 32.38 93.9364 32.08C93.4364 31.62 92.6564 31.7 92.2364 32.2C91.8164 32.7 91.9164 33.46 92.4564 33.88ZM116.693 22.56C116.693 21.9 116.153 21.38 115.493 21.38C114.832 21.38 114.293 21.9 114.293 22.56V29.28C114.293 32.14 113.213 33.56 111.033 33.56C108.853 33.56 107.773 32.14 107.773 29.3V22.54C107.773 21.88 107.233 21.38 106.573 21.38C105.913 21.38 105.373 21.9 105.373 22.56V29.28C105.373 33.46 107.573 35.72 111.033 35.72C114.493 35.72 116.693 33.46 116.693 29.28V22.56ZM125.086 23.64C127.266 23.64 128.346 24.46 128.346 26.08C128.346 27.72 127.266 28.54 125.086 28.54H122.426V23.64H125.086ZM127.926 34.94C128.386 35.66 128.946 35.8 129.626 35.38C130.206 35 130.366 34.44 129.946 33.66L127.866 30.32C129.686 29.62 130.726 28.12 130.726 26.06C130.726 23.18 128.686 21.48 125.386 21.48H121.306C120.606 21.48 120.046 22.02 120.046 22.74V34.42C120.046 35.08 120.566 35.6 121.226 35.6C121.886 35.6 122.426 35.08 122.426 34.42V30.72H125.326L127.926 34.94ZM141.137 22.56C141.137 21.9 140.597 21.38 139.937 21.38C139.277 21.38 138.757 21.9 138.757 22.56V34.24C138.757 34.96 139.317 35.5 140.017 35.5H146.817C147.397 35.5 147.897 35.02 147.897 34.4C147.897 33.82 147.417 33.34 146.797 33.34H141.137V22.56ZM150.673 23.08C151.013 22.28 150.793 21.66 150.213 21.44C149.493 21.18 148.893 21.56 148.653 22.18L147.413 25.3C147.193 25.8 147.453 26.4 147.953 26.62C148.493 26.84 149.053 26.6 149.313 26.06L150.673 23.08ZM152.433 28.48C152.433 30.54 153.113 32.26 154.453 33.64C155.813 35.02 157.493 35.72 159.513 35.72C161.533 35.72 163.213 35.02 164.593 33.64C165.973 32.26 166.653 30.54 166.653 28.48C166.653 26.44 165.973 24.72 164.593 23.34C163.213 21.96 161.533 21.26 159.513 21.26C157.493 21.26 155.813 21.96 154.453 23.34C153.113 24.72 152.433 26.44 152.433 28.48ZM154.873 28.48C154.873 27.06 155.313 25.86 156.193 24.9C157.093 23.94 158.213 23.46 159.593 23.46C160.933 23.46 162.053 23.94 162.933 24.9C163.812 25.86 164.253 27.06 164.253 28.48C164.253 29.92 163.812 31.12 162.933 32.1C162.053 33.06 160.933 33.54 159.593 33.54C158.213 33.54 157.093 33.06 156.193 32.1C155.313 31.14 154.873 29.94 154.873 28.48ZM179.492 24.72C180.072 25.32 180.612 25.4 181.112 24.96C181.612 24.5 181.712 23.92 181.172 23.3C179.872 21.94 178.212 21.26 176.232 21.26C174.132 21.26 172.412 21.94 171.032 23.28C169.672 24.62 168.992 26.36 168.992 28.52C168.992 30.64 169.672 32.38 171.052 33.72C172.432 35.06 174.192 35.72 176.312 35.72C178.392 35.72 180.072 35.04 181.372 33.66C181.912 33.04 181.812 32.46 181.312 32C180.812 31.56 180.272 31.64 179.692 32.24C178.852 33.1 177.732 33.54 176.352 33.54C174.932 33.54 173.772 33.06 172.832 32.12C171.892 31.16 171.432 29.96 171.432 28.52C171.432 27.06 171.892 25.84 172.812 24.88C173.732 23.92 174.892 23.44 176.272 23.44C177.632 23.44 178.712 23.86 179.492 24.72ZM184.48 34.24C184.48 34.96 185.04 35.5 185.74 35.5H193.46C194.04 35.5 194.54 35.02 194.54 34.4C194.54 33.82 194.06 33.34 193.44 33.34H186.86V29.44H193.12C193.7 29.44 194.2 28.98 194.2 28.36C194.2 27.74 193.7 27.26 193.12 27.26H186.86V23.64H193.44C194.06 23.64 194.54 23.16 194.54 22.58C194.54 21.96 194.04 21.48 193.46 21.48H185.74C185.04 21.48 184.48 22.02 184.48 22.74V34.24ZM187.92 18.34C187.28 18.58 187.08 19.28 187.34 19.76C187.6 20.3 188.08 20.46 188.82 20.22L191.3 19.4C192.02 19.14 192.18 18.34 191.86 17.8C191.54 17.22 190.92 17.04 190.2 17.38L187.92 18.34ZM205.322 30.32H201.062L203.182 24.72L205.322 30.32ZM207.082 34.84C207.322 35.46 208.002 35.76 208.622 35.52C209.242 35.3 209.562 34.64 209.322 34.02L204.882 22.7C204.542 21.82 203.962 21.38 203.182 21.38C202.422 21.38 201.882 21.8 201.542 22.62L197.082 34.02C196.842 34.64 197.162 35.3 197.782 35.52C198.402 35.76 199.082 35.46 199.322 34.84L200.202 32.52H206.182L207.082 34.84ZM220.921 35C221.201 35.4 221.601 35.6 222.141 35.6C223.021 35.6 223.661 35.02 223.661 33.98V22.66C223.801 20.96 221.161 20.96 221.261 22.66V31.4L214.661 21.98C214.381 21.58 213.981 21.38 213.441 21.38C212.561 21.38 211.921 21.96 211.921 23V34.32C211.781 36.02 214.421 36.02 214.301 34.32V25.62L220.921 35Z" fill="black"/>
</svg>
