<svg width="266" height="55" viewBox="0 0 266 55" fill="none" xmlns="http://www.w3.org/2000/svg">
<path d="M235.58 2H250.2C253.959 2.00265 257.563 3.49776 260.22 6.15674C262.878 8.81572 264.37 12.421 264.37 16.18V39.18C264.37 42.939 262.878 46.5442 260.22 49.2032C257.563 51.8622 253.959 53.3573 250.2 53.36H235.58" fill="white"/>
<path d="M235.58 2H250.2C253.959 2.00265 257.563 3.49776 260.22 6.15674C262.878 8.81572 264.37 12.421 264.37 16.18V39.18C264.37 42.939 262.878 46.5442 260.22 49.2032C257.563 51.8622 253.959 53.3573 250.2 53.36H235.58" stroke="#00D4AE" stroke-width="3" stroke-linecap="round" stroke-linejoin="round"/>
<path d="M236.62 53.39H28.06C21.1476 53.3873 14.5191 50.6395 9.6322 45.7507C4.74529 40.8619 2 34.2324 2 27.32C2 20.6047 4.66764 14.1645 9.41606 9.41605C14.1645 4.66762 20.6047 2 27.32 2H236.62" fill="white"/>
<path d="M236.62 53.39H28.06C21.1476 53.3873 14.5191 50.6395 9.6322 45.7507C4.74529 40.8619 2 34.2324 2 27.32V27.32C2 20.6047 4.66764 14.1645 9.41606 9.41605C14.1645 4.66762 20.6047 2 27.32 2H236.62" stroke="#00D4AE" stroke-width="3" stroke-linecap="round" stroke-linejoin="round"/>
<path d="M53.5 25.72C54.08 26.32 54.62 26.4 55.12 25.96C55.62 25.5 55.72 24.92 55.18 24.3C53.88 22.94 52.22 22.26 50.24 22.26C48.14 22.26 46.42 22.94 45.04 24.28C43.68 25.62 43 27.36 43 29.52C43 31.64 43.68 33.38 45.06 34.72C46.44 36.06 48.2 36.72 50.32 36.72C52.4 36.72 54.08 36.04 55.38 34.66C55.92 34.04 55.82 33.46 55.32 33C54.82 32.56 54.28 32.64 53.7 33.24C52.86 34.1 51.74 34.54 50.36 34.54C48.94 34.54 47.78 34.06 46.84 33.12C45.9 32.16 45.44 30.96 45.44 29.52C45.44 28.06 45.9 26.84 46.82 25.88C47.74 24.92 48.9 24.44 50.28 24.44C51.64 24.44 52.72 24.86 53.5 25.72ZM65.7555 31.32H61.4955L63.6155 25.72L65.7555 31.32ZM67.5155 35.84C67.7555 36.46 68.4355 36.76 69.0555 36.52C69.6755 36.3 69.9955 35.64 69.7555 35.02L65.3155 23.7C64.9755 22.82 64.3955 22.38 63.6155 22.38C62.8555 22.38 62.3155 22.8 61.9755 23.62L57.5155 35.02C57.2755 35.64 57.5955 36.3 58.2155 36.52C58.8355 36.76 59.5155 36.46 59.7555 35.84L60.6355 33.52H66.6155L67.5155 35.84ZM77.3947 24.64C79.5747 24.64 80.6547 25.46 80.6547 27.08C80.6547 28.72 79.5747 29.54 77.3947 29.54H74.7347V24.64H77.3947ZM73.6147 22.48C72.9147 22.48 72.3547 23.02 72.3547 23.74V35.42C72.3547 36.08 72.8747 36.6 73.5347 36.6C74.1947 36.6 74.7347 36.08 74.7347 35.42V31.72H77.6947C80.9747 31.72 83.0347 29.96 83.0347 27.06C83.0347 24.18 80.9947 22.48 77.6947 22.48H73.6147ZM90.9564 34.88C91.3964 35.24 91.7764 35.52 92.0764 35.74C92.3764 35.94 92.8764 36.16 93.5564 36.38C94.2564 36.6 94.9964 36.72 95.7964 36.72C97.4564 36.72 98.7564 36.34 99.7164 35.6C100.676 34.84 101.156 33.86 101.156 32.66C101.156 30.36 99.6964 28.82 96.6764 28.34L95.2764 28.1C93.7364 27.84 92.9564 27.2 92.9564 26.2C92.9564 25.24 93.7964 24.42 95.3964 24.42C96.4964 24.42 97.4964 24.82 98.4364 25.6C98.9364 26.02 99.6764 25.96 100.096 25.46C100.516 24.96 100.436 24.2 99.8964 23.78C99.5164 23.48 99.1764 23.26 98.8764 23.08C98.5764 22.9 98.1364 22.72 97.5164 22.54C96.8964 22.36 96.2364 22.26 95.4964 22.26C94.1164 22.26 92.9564 22.62 91.9964 23.36C91.0364 24.1 90.5564 25.06 90.5564 26.26C90.5564 28.52 92.0964 29.94 94.7564 30.42L96.4564 30.7C97.9964 30.96 98.7564 31.64 98.7564 32.7C98.7564 33.8 97.7964 34.56 96.0964 34.56C94.8964 34.56 93.7964 34.12 93.3164 33.8C93.0764 33.62 92.7764 33.38 92.4364 33.08C91.9364 32.62 91.1564 32.7 90.7364 33.2C90.3164 33.7 90.4164 34.46 90.9564 34.88ZM115.193 23.56C115.193 22.9 114.653 22.38 113.993 22.38C113.332 22.38 112.793 22.9 112.793 23.56V30.28C112.793 33.14 111.713 34.56 109.533 34.56C107.353 34.56 106.273 33.14 106.273 30.3V23.54C106.273 22.88 105.733 22.38 105.073 22.38C104.413 22.38 103.873 22.9 103.873 23.56V30.28C103.873 34.46 106.073 36.72 109.533 36.72C112.993 36.72 115.193 34.46 115.193 30.28V23.56ZM123.586 24.64C125.766 24.64 126.846 25.46 126.846 27.08C126.846 28.72 125.766 29.54 123.586 29.54H120.926V24.64H123.586ZM126.426 35.94C126.886 36.66 127.446 36.8 128.126 36.38C128.706 36 128.866 35.44 128.446 34.66L126.366 31.32C128.186 30.62 129.226 29.12 129.226 27.06C129.226 24.18 127.186 22.48 123.886 22.48H119.806C119.106 22.48 118.546 23.02 118.546 23.74V35.42C118.546 36.08 119.066 36.6 119.726 36.6C120.386 36.6 120.926 36.08 120.926 35.42V31.72H123.826L126.426 35.94ZM139.637 23.56C139.637 22.9 139.097 22.38 138.437 22.38C137.777 22.38 137.257 22.9 137.257 23.56V35.24C137.257 35.96 137.817 36.5 138.517 36.5H145.317C145.897 36.5 146.397 36.02 146.397 35.4C146.397 34.82 145.917 34.34 145.297 34.34H139.637V23.56ZM149.173 24.08C149.513 23.28 149.293 22.66 148.713 22.44C147.993 22.18 147.393 22.56 147.153 23.18L145.913 26.3C145.693 26.8 145.953 27.4 146.453 27.62C146.993 27.84 147.553 27.6 147.813 27.06L149.173 24.08ZM150.933 29.48C150.933 31.54 151.613 33.26 152.953 34.64C154.313 36.02 155.993 36.72 158.013 36.72C160.033 36.72 161.713 36.02 163.093 34.64C164.473 33.26 165.153 31.54 165.153 29.48C165.153 27.44 164.473 25.72 163.093 24.34C161.713 22.96 160.033 22.26 158.013 22.26C155.993 22.26 154.313 22.96 152.953 24.34C151.613 25.72 150.933 27.44 150.933 29.48ZM153.373 29.48C153.373 28.06 153.813 26.86 154.693 25.9C155.593 24.94 156.713 24.46 158.093 24.46C159.433 24.46 160.553 24.94 161.433 25.9C162.312 26.86 162.753 28.06 162.753 29.48C162.753 30.92 162.312 32.12 161.433 33.1C160.553 34.06 159.433 34.54 158.093 34.54C156.713 34.54 155.593 34.06 154.693 33.1C153.813 32.14 153.373 30.94 153.373 29.48ZM177.992 25.72C178.572 26.32 179.112 26.4 179.612 25.96C180.112 25.5 180.212 24.92 179.672 24.3C178.372 22.94 176.712 22.26 174.732 22.26C172.632 22.26 170.912 22.94 169.532 24.28C168.172 25.62 167.492 27.36 167.492 29.52C167.492 31.64 168.172 33.38 169.552 34.72C170.932 36.06 172.692 36.72 174.812 36.72C176.892 36.72 178.572 36.04 179.872 34.66C180.412 34.04 180.312 33.46 179.812 33C179.312 32.56 178.772 32.64 178.192 33.24C177.352 34.1 176.232 34.54 174.852 34.54C173.432 34.54 172.272 34.06 171.332 33.12C170.392 32.16 169.932 30.96 169.932 29.52C169.932 28.06 170.392 26.84 171.312 25.88C172.232 24.92 173.392 24.44 174.772 24.44C176.132 24.44 177.212 24.86 177.992 25.72ZM182.98 35.24C182.98 35.96 183.54 36.5 184.24 36.5H191.96C192.54 36.5 193.04 36.02 193.04 35.4C193.04 34.82 192.56 34.34 191.94 34.34H185.36V30.44H191.62C192.2 30.44 192.7 29.98 192.7 29.36C192.7 28.74 192.2 28.26 191.62 28.26H185.36V24.64H191.94C192.56 24.64 193.04 24.16 193.04 23.58C193.04 22.96 192.54 22.48 191.96 22.48H184.24C183.54 22.48 182.98 23.02 182.98 23.74V35.24ZM186.42 19.34C185.78 19.58 185.58 20.28 185.84 20.76C186.1 21.3 186.58 21.46 187.32 21.22L189.8 20.4C190.52 20.14 190.68 19.34 190.36 18.8C190.04 18.22 189.42 18.04 188.7 18.38L186.42 19.34ZM203.822 31.32H199.562L201.682 25.72L203.822 31.32ZM205.582 35.84C205.822 36.46 206.502 36.76 207.122 36.52C207.742 36.3 208.062 35.64 207.822 35.02L203.382 23.7C203.042 22.82 202.462 22.38 201.682 22.38C200.922 22.38 200.382 22.8 200.042 23.62L195.582 35.02C195.342 35.64 195.662 36.3 196.282 36.52C196.902 36.76 197.582 36.46 197.822 35.84L198.702 33.52H204.682L205.582 35.84ZM219.421 36C219.701 36.4 220.101 36.6 220.641 36.6C221.521 36.6 222.161 36.02 222.161 34.98V23.66C222.301 21.96 219.661 21.96 219.761 23.66V32.4L213.161 22.98C212.881 22.58 212.481 22.38 211.941 22.38C211.061 22.38 210.421 22.96 210.421 24V35.32C210.281 37.02 212.921 37.02 212.801 35.32V26.62L219.421 36Z" fill="black"/>
</svg>
