<svg width="178" height="174" viewBox="0 0 178 174" fill="none" xmlns="http://www.w3.org/2000/svg">
<path d="M176 86C176 133.496 137.049 172 89 172C40.9512 172 2 133.496 2 86" stroke="#1C1C1C" stroke-width="3"/>
<path d="M89.0003 170.764C136.468 170.764 174.948 132.537 174.948 85.3821C174.948 38.2269 136.468 0 89.0003 0C41.5328 0 3.05273 38.2269 3.05273 85.3821C3.05273 132.537 41.5328 170.764 89.0003 170.764Z" fill="white"/>
<path d="M117.681 50.3174C110.553 44.2694 102.021 41.2454 92.1932 41.2454C80.8532 41.2454 71.4572 44.8094 63.8972 52.0454C56.3372 59.1734 52.5572 68.6774 52.5572 80.4494C52.5572 92.1134 56.3372 101.509 63.8972 108.637C71.5652 115.765 81.1772 119.329 92.7332 119.329C103.209 119.329 111.957 116.305 118.869 110.149C122.757 106.693 123.081 101.941 120.057 98.8094C117.141 95.4614 112.821 95.0294 108.609 98.3774C103.857 102.373 98.4572 104.317 92.3012 104.317C85.7132 104.317 80.2052 102.157 75.7772 97.8374C71.3492 93.5174 69.0812 87.5774 69.0812 80.1254C69.0812 72.7814 71.3492 66.9494 75.7772 62.7374C80.3132 58.4174 85.4972 56.2574 91.4372 56.2574C97.7012 56.2574 102.993 58.2014 107.421 62.0894C111.633 65.5454 115.953 65.1134 118.869 61.6574C121.893 58.5254 121.569 53.7734 117.681 50.3174Z" fill="#1C1C1C"/>
<path d="M164.68 77.2539C164.876 79.177 166.593 80.5778 168.516 80.3826C170.439 80.1873 171.84 78.4701 171.645 76.547L164.68 77.2539ZM6.35578 76.547C6.16058 78.4701 7.56133 80.1873 9.48444 80.3826C11.4076 80.5778 13.1248 79.177 13.32 77.2539L6.35578 76.547ZM89.0001 9.15442C128.403 9.15442 160.799 39.0157 164.68 77.2539L171.645 76.547C167.402 34.7542 132.014 2.15442 89.0001 2.15442V9.15442ZM13.32 77.2539C17.2013 39.0157 49.5975 9.15442 89.0001 9.15442V2.15442C45.9858 2.15442 10.5979 34.7542 6.35578 76.547L13.32 77.2539Z" fill="#276DFF"/>
<path opacity="0.55" d="M8 114.091C17.7757 142.758 48.64 170.976 86.774 170.976C125.654 171.87 159.078 147.237 170.74 112.59C171.177 111.312 171.52 110.508 172 108.716C168.445 107.372 165.895 104.613 163.069 102.293C158.934 98.8772 153.879 96.7869 148.556 96.2909C133.217 95.1084 126.956 105.601 117.31 111.851C111.089 115.883 104.868 118.57 99.4735 117.576C88.6385 115.579 84.8722 99.3097 72.4305 95.2785C54.2122 93.0389 49.04 104.846 42.2148 111.404C32.1637 121.061 29.4442 125.746 17.2513 119.672C14.1053 118.14 11.1104 115.883 8 114.091Z" fill="#BED3FF"/>
<path d="M26.4283 105.661C26.1892 105.548 25.977 105.386 25.8061 105.185C25.6352 104.983 25.5096 104.748 25.4377 104.494C25.3659 104.239 25.3495 103.973 25.3897 103.712C25.4298 103.451 25.5256 103.201 25.6705 102.981C26.3285 101.713 26.4937 100.246 26.1342 98.864C25.9688 98.1767 25.6687 97.5288 25.2513 96.9581C24.834 96.3875 24.3077 95.9053 23.7028 95.5393C23.0326 95.1285 22.2833 94.864 21.5038 94.7626C20.7243 94.6613 19.9322 94.7255 19.1792 94.9512C18.4007 95.0992 17.6613 95.4067 17.0073 95.8543C16.3534 96.3019 15.7992 96.8801 15.3795 97.5523C14.9999 98.189 14.7523 98.8956 14.6513 99.6299C14.5502 100.364 14.5979 101.112 14.7914 101.827C15.1166 103.243 15.9495 104.49 17.1323 105.333C17.3575 105.466 17.5523 105.646 17.704 105.859C17.8557 106.073 17.961 106.316 18.0132 106.573C18.0654 106.829 18.0633 107.094 18.007 107.35C17.9507 107.606 17.8415 107.847 17.6865 108.058C17.5416 108.277 17.3517 108.463 17.1293 108.602C16.9069 108.742 16.6573 108.832 16.3971 108.868C16.1369 108.903 15.8721 108.883 15.6206 108.807C15.369 108.732 15.1364 108.604 14.9384 108.431C13.0447 107.079 11.7351 105.058 11.2743 102.777C10.5867 100.285 10.8992 97.6233 12.1451 95.3584C13.5325 93.2069 15.6939 91.6711 18.1821 91.069C20.6703 90.467 23.2947 90.8447 25.5122 92.124C26.5755 92.8065 27.4923 93.694 28.2088 94.7347C28.9252 95.7755 29.4271 96.9488 29.6852 98.1857C30.2674 100.375 30.0218 102.702 28.9953 104.722C28.8986 104.961 28.753 105.176 28.5677 105.355C28.3825 105.534 28.1619 105.672 27.92 105.761C27.6782 105.849 27.4205 105.886 27.1635 105.869C26.9066 105.852 26.6561 105.781 26.4283 105.661Z" fill="#276DFF"/>
<path d="M29.911 113.747C30.6373 114.993 30.8597 116.469 30.533 117.874C30.3549 118.551 30.0307 119.179 29.5832 119.717C29.1358 120.254 28.576 120.687 27.9433 120.984L22.4924 123.879C22.2759 124.018 22.0329 124.11 21.7788 124.149C21.5248 124.188 21.2654 124.174 21.0172 124.106C20.7691 124.039 20.5377 123.921 20.338 123.759C20.1382 123.598 19.9745 123.396 19.8574 123.167C19.6544 122.845 19.5673 122.463 19.6105 122.085C19.6537 121.707 19.8246 121.354 20.0949 121.086C18.9743 120.715 18.0281 119.946 17.4345 118.925C16.8409 117.905 16.6409 116.703 16.8719 115.545C17.0068 115.027 17.2512 114.544 17.5887 114.128C17.9262 113.712 18.349 113.374 18.8283 113.136C19.3339 112.823 19.9114 112.645 20.5055 112.619C21.0995 112.594 21.6902 112.721 22.221 112.989C23.354 113.616 24.284 114.554 24.9012 115.692L26.1 117.727C26.3546 117.637 26.5846 117.488 26.7714 117.293C26.9583 117.098 27.0968 116.862 27.176 116.604C27.2551 116.345 27.2726 116.072 27.2272 115.806C27.1817 115.539 27.0746 115.287 26.9142 115.07C26.5671 114.385 26.0131 113.827 25.331 113.475C24.2905 112.932 23.9173 112.061 24.3131 111.213C24.4133 111.001 24.5564 110.811 24.7332 110.656C24.9101 110.502 25.117 110.385 25.341 110.314C25.5649 110.243 25.8012 110.219 26.0349 110.243C26.2687 110.267 26.4949 110.34 26.6994 110.456C28.111 111.158 29.2431 112.318 29.911 113.747ZM20.5812 118.146C20.9655 118.852 21.5745 119.409 22.3115 119.729L23.6573 119.017L22.7638 117.614C22.0514 116.483 21.4067 116.02 20.7848 116.348C20.1628 116.676 20.1741 117.286 20.5812 118.146Z" fill="#276DFF"/>
<path d="M32.8398 123.054C33.0179 122.868 33.2331 122.722 33.4713 122.625C33.7096 122.528 33.9656 122.482 34.2227 122.491C34.4798 122.499 34.7323 122.562 34.9636 122.674C35.1949 122.787 35.3999 122.947 35.5653 123.144C35.847 123.41 36.0254 123.767 36.0689 124.152C36.1124 124.537 36.0181 124.925 35.8028 125.248C36.4377 125.287 37.0577 125.457 37.6239 125.747C38.1901 126.037 38.6904 126.441 39.0936 126.933C39.6609 127.561 40.0947 128.298 40.3688 129.099C40.6429 129.899 40.7516 130.748 40.6882 131.592C40.4663 133.373 39.5969 135.012 38.2457 136.194C36.8944 137.376 35.1555 138.021 33.36 138.004C32.51 137.946 31.6807 137.715 30.9226 137.326C30.1644 136.937 29.4931 136.398 28.9496 135.742C28.1202 134.867 27.6483 133.713 27.6265 132.508L24.5617 135.188C24.3818 135.373 24.1655 135.518 23.9264 135.616C23.6874 135.713 23.4308 135.759 23.1729 135.752C22.915 135.745 22.6613 135.685 22.428 135.574C22.1947 135.464 21.9867 135.307 21.8173 135.112C21.6478 134.918 21.5205 134.69 21.4435 134.444C21.3665 134.198 21.3414 133.938 21.3697 133.682C21.3981 133.425 21.4793 133.177 21.6083 132.954C21.7372 132.731 21.9111 132.536 22.119 132.384L32.8398 123.054ZM31.7994 128.844C31.1099 129.413 30.6581 130.22 30.5328 131.106C30.4776 131.512 30.5128 131.925 30.636 132.316C30.7591 132.707 30.9672 133.066 31.2452 133.367C31.4991 133.679 31.8202 133.93 32.1844 134.1C32.5486 134.27 32.9467 134.356 33.3488 134.351C34.2337 134.349 35.0854 134.014 35.7349 133.413C36.4314 132.852 36.8784 132.039 36.9789 131.151C37.0434 130.747 37.0159 130.334 36.8985 129.942C36.781 129.551 36.5765 129.191 36.3004 128.889C36.0375 128.581 35.7117 128.333 35.345 128.161C34.9783 127.99 34.5791 127.898 34.1743 127.894C33.2921 127.904 32.4456 128.243 31.7994 128.844Z" fill="#276DFF"/>
<path d="M46.3995 146.056C47.406 145.739 48.1185 146.124 48.5482 147.255C48.9579 148.174 49.6622 148.93 50.5498 149.403C51.251 149.81 51.9409 149.878 52.201 149.403C52.4611 148.928 52.2688 148.714 51.6355 148.08L50.6064 146.949C48.5481 144.801 48.0506 142.991 49.1023 141.204C49.3737 140.703 49.7641 140.276 50.2394 139.96C50.7146 139.645 51.26 139.451 51.8277 139.395C53.0967 139.245 54.3786 139.537 55.4579 140.221C56.634 140.854 57.6034 141.812 58.2512 142.98C58.3771 143.176 58.4611 143.395 58.4979 143.625C58.5348 143.855 58.5237 144.09 58.4652 144.315C58.4068 144.54 58.3024 144.751 58.1585 144.934C58.0146 145.116 57.8344 145.268 57.6292 145.378C57.4223 145.494 57.1927 145.565 56.956 145.586C56.7193 145.607 56.4809 145.576 56.2569 145.497C56.033 145.418 55.8286 145.291 55.6576 145.126C55.4866 144.961 55.353 144.762 55.2657 144.541C54.924 143.846 54.385 143.268 53.7163 142.878C53.083 142.505 52.5854 142.516 52.314 142.878C52.0426 143.24 52.314 143.5 52.7438 144.009L53.9425 145.23C55.8311 147.187 56.6453 148.974 55.4353 151.032C54.2252 153.09 51.5337 153.543 48.7065 151.892C47.2187 151.131 46.0517 149.863 45.4156 148.318C45.3215 148.106 45.2724 147.877 45.2715 147.645C45.2706 147.413 45.3179 147.183 45.4104 146.971C45.5029 146.758 45.6386 146.567 45.8088 146.409C45.9791 146.252 46.1803 146.132 46.3995 146.056Z" fill="#276DFF"/>
<path d="M69.7519 158.484C69.6906 158.734 69.5779 158.968 69.421 159.171C69.2641 159.374 69.0664 159.542 68.8407 159.665C68.615 159.787 68.3662 159.861 68.1102 159.882C67.8543 159.903 67.5968 159.87 67.3543 159.785C66.9928 159.69 66.6734 159.477 66.4461 159.18C66.2189 158.883 66.0967 158.519 66.0991 158.145C65.5873 158.436 65.0169 158.608 64.4297 158.649C63.8426 158.69 63.2537 158.599 62.7064 158.383C59.7208 157.388 58.6918 154.911 59.8453 151.45L61.632 146.124C61.6965 145.876 61.8114 145.644 61.9694 145.443C62.1273 145.241 62.3251 145.074 62.5503 144.953C62.7755 144.831 63.0233 144.757 63.2784 144.735C63.5335 144.713 63.7903 144.744 64.033 144.826C64.2756 144.907 64.4989 145.038 64.6888 145.21C64.8788 145.381 65.0314 145.59 65.1371 145.823C65.2429 146.056 65.2995 146.309 65.3036 146.565C65.3076 146.821 65.2589 147.075 65.1605 147.311L63.4754 152.355C62.9439 153.95 63.2944 154.956 64.5384 155.374C66.1104 155.895 67.0264 154.979 67.6937 152.966L69.1412 148.634C69.2191 148.402 69.3421 148.187 69.5031 148.002C69.6641 147.817 69.8599 147.666 70.0794 147.557C70.2989 147.447 70.5377 147.383 70.7823 147.366C71.0268 147.349 71.2723 147.38 71.5047 147.458C71.7372 147.536 71.9519 147.659 72.1368 147.82C72.3217 147.981 72.4731 148.177 72.5823 148.396C72.6915 148.616 72.7564 148.855 72.7733 149.099C72.7902 149.344 72.7588 149.589 72.6808 149.822L69.7519 158.484Z" fill="#276DFF"/>
<path d="M86.1387 151.642C86.1266 151.864 86.0687 152.082 85.9689 152.28C85.869 152.479 85.7294 152.655 85.5585 152.797C85.3877 152.939 85.1893 153.045 84.9759 153.107C84.7624 153.169 84.5384 153.186 84.3179 153.158C84.137 153.158 83.7525 153.034 83.5151 153C81.7396 152.785 80.2128 154.04 79.8849 156.618L79.4438 160.113C79.4355 160.373 79.3732 160.627 79.2607 160.861C79.1482 161.096 78.9882 161.304 78.7907 161.472C78.5933 161.641 78.3628 161.766 78.114 161.841C77.8652 161.915 77.6036 161.937 77.346 161.905C77.0883 161.872 76.8403 161.787 76.6177 161.653C76.3951 161.519 76.2029 161.34 76.0534 161.128C75.9038 160.916 75.8002 160.674 75.7492 160.42C75.6982 160.165 75.7009 159.903 75.7572 159.649L76.8881 150.602C76.8983 150.345 76.9621 150.093 77.0754 149.863C77.1887 149.632 77.3491 149.427 77.5461 149.262C77.7431 149.097 77.9725 148.976 78.2195 148.904C78.4664 148.833 78.7255 148.814 78.9802 148.849C79.4201 148.889 79.8292 149.092 80.1265 149.419C80.4239 149.745 80.5878 150.172 80.586 150.613C81.0065 150.172 81.5235 149.834 82.0964 149.626C82.6693 149.418 83.2827 149.346 83.8883 149.415C84.2408 149.445 84.5873 149.525 84.9174 149.652C85.3207 149.79 85.6633 150.064 85.8862 150.428C86.1092 150.791 86.1985 151.22 86.1387 151.642Z" fill="#276DFF"/>
<path d="M100.467 160C100.494 160.243 100.473 160.49 100.406 160.725C100.338 160.961 100.224 161.181 100.071 161.373C99.9187 161.564 99.7296 161.724 99.5151 161.843C99.3006 161.961 99.0649 162.036 98.8213 162.064C98.5777 162.091 98.3312 162.071 98.0956 162.003C97.8601 161.935 97.6403 161.821 97.4486 161.668C97.257 161.516 97.0973 161.327 96.9787 161.112C96.8601 160.898 96.7849 160.662 96.7574 160.418L95.0837 145.886C95.0366 145.635 95.0416 145.376 95.0987 145.127C95.1558 144.877 95.2636 144.642 95.4154 144.436C95.5672 144.23 95.7598 144.057 95.9812 143.929C96.2026 143.8 96.4481 143.719 96.7023 143.689C96.9566 143.659 97.2143 143.683 97.4592 143.757C97.7042 143.831 97.9313 143.955 98.1263 144.121C98.3213 144.287 98.4801 144.491 98.5929 144.72C98.7057 144.95 98.77 145.201 98.7817 145.457L100.467 160Z" fill="#276DFF"/>
<path d="M106.177 147.945C106.089 148.354 105.861 148.719 105.533 148.979C105.205 149.238 104.798 149.377 104.379 149.37C104.14 149.354 103.906 149.288 103.693 149.177C103.481 149.065 103.294 148.909 103.146 148.72C102.998 148.531 102.891 148.313 102.832 148.08C102.774 147.847 102.766 147.605 102.807 147.368L103.316 143.817C103.324 143.558 103.385 143.304 103.496 143.07C103.607 142.836 103.765 142.627 103.961 142.457C104.156 142.287 104.385 142.16 104.632 142.082C104.879 142.005 105.14 141.979 105.397 142.008C105.654 142.04 105.901 142.126 106.122 142.261C106.343 142.396 106.532 142.576 106.678 142.79C106.823 143.004 106.922 143.247 106.966 143.502C107.01 143.757 107 144.019 106.935 144.269L106.177 147.945Z" fill="#276DFF"/>
<path d="M111.517 143.138C112.396 140.785 114.15 138.861 116.412 137.767C118.675 136.674 121.272 136.495 123.662 137.269C124.858 137.662 125.958 138.301 126.893 139.145C127.828 139.988 128.576 141.017 129.091 142.166C129.677 143.288 130.022 144.521 130.106 145.784C130.19 147.048 130.01 148.315 129.577 149.505C128.969 151.299 127.836 152.868 126.326 154.012C124.816 155.155 122.998 155.818 121.106 155.917C119.215 156.016 117.337 155.545 115.716 154.565C114.096 153.585 112.806 152.142 112.014 150.421C111.435 149.307 111.092 148.084 111.007 146.831C110.921 145.578 111.095 144.321 111.517 143.138ZM118.777 151.756C119.477 152.041 120.233 152.167 120.988 152.124C121.743 152.081 122.479 151.87 123.142 151.507C123.827 151.214 124.438 150.772 124.929 150.212C125.421 149.653 125.78 148.99 125.981 148.272C126.388 146.805 126.226 145.238 125.528 143.885C124.895 142.511 123.757 141.434 122.351 140.877C121.672 140.589 120.938 140.454 120.201 140.481C119.464 140.509 118.743 140.698 118.087 141.035C117.393 141.336 116.773 141.786 116.271 142.353C115.769 142.919 115.397 143.589 115.181 144.314C114.813 145.779 114.972 147.327 115.629 148.687C116.287 150.047 117.401 151.133 118.777 151.756Z" fill="#276DFF"/>
<path d="M136.396 135.143C135.804 135.731 135.458 136.521 135.427 137.354C135.396 138.187 135.682 139.001 136.227 139.631C136.773 140.261 137.537 140.661 138.366 140.749C139.195 140.838 140.027 140.608 140.693 140.108C141.262 139.571 141.633 138.857 141.745 138.083C141.775 137.829 141.862 137.584 141.999 137.367C142.136 137.15 142.319 136.966 142.535 136.829C142.752 136.691 142.996 136.604 143.25 136.572C143.505 136.541 143.763 136.567 144.007 136.647C144.945 136.806 145.488 137.778 145.251 138.909C144.916 140.425 144.079 141.784 142.876 142.765C141.866 143.636 140.623 144.191 139.301 144.359C137.978 144.528 136.636 144.303 135.44 143.713C134.245 143.123 133.249 142.194 132.579 141.042C131.908 139.89 131.591 138.566 131.669 137.235C131.735 136.339 131.982 135.466 132.394 134.667C132.806 133.868 133.375 133.161 134.066 132.587C135.101 131.646 136.416 131.07 137.809 130.947C139.042 130.88 139.958 131.547 140.071 132.463C140.105 132.707 140.086 132.956 140.015 133.192C139.944 133.428 139.823 133.646 139.66 133.831C139.496 134.016 139.295 134.163 139.069 134.263C138.843 134.362 138.599 134.412 138.352 134.408C137.635 134.423 136.945 134.683 136.396 135.143Z" fill="#276DFF"/>
<path d="M141.349 122.432C141.312 122.687 141.207 122.927 141.043 123.126C140.88 123.326 140.665 123.477 140.422 123.563C140.176 123.649 139.913 123.672 139.656 123.628C139.4 123.585 139.158 123.476 138.956 123.313C138.753 123.15 138.595 122.937 138.497 122.696C138.4 122.455 138.365 122.193 138.398 121.934L138.578 119.265C138.597 118.933 138.715 118.615 138.917 118.351C139.118 118.087 139.394 117.889 139.709 117.784C140.14 117.639 140.61 117.669 141.018 117.868C141.427 118.067 141.741 118.418 141.892 118.847C142.016 119.233 142.016 119.648 141.892 120.034L141.349 122.432ZM151.697 124.264L147.705 129.5C148.314 129.845 149.032 129.943 149.711 129.775C150.391 129.606 150.98 129.184 151.358 128.595C151.871 127.954 152.143 127.154 152.127 126.333C152.106 126.082 152.14 125.829 152.227 125.592C152.315 125.356 152.452 125.141 152.631 124.964C152.81 124.786 153.025 124.649 153.263 124.564C153.5 124.478 153.753 124.445 154.004 124.467C154.954 124.467 155.678 125.214 155.7 126.446C155.655 127.975 155.106 129.446 154.14 130.631C153.1 132.095 151.522 133.087 149.752 133.39C148.868 133.522 147.965 133.466 147.104 133.227C146.243 132.987 145.442 132.569 144.753 131.999C143.287 130.966 142.278 129.405 141.937 127.645C141.782 126.804 141.81 125.939 142.019 125.11C142.228 124.281 142.613 123.506 143.147 122.839C143.853 121.877 144.818 121.136 145.929 120.701C146.811 120.322 147.778 120.186 148.73 120.305C149.682 120.424 150.585 120.795 151.346 121.38C151.59 121.521 151.797 121.717 151.952 121.952C152.107 122.187 152.205 122.455 152.239 122.735C152.273 123.014 152.242 123.298 152.148 123.563C152.054 123.828 151.899 124.068 151.697 124.264ZM145.839 127.849L148.632 124.173C148.176 123.878 147.622 123.773 147.09 123.881C146.557 123.989 146.088 124.301 145.782 124.75C145.412 125.185 145.214 125.739 145.224 126.31C145.235 126.881 145.453 127.428 145.839 127.849Z" fill="#276DFF"/>
<path d="M150.373 110.84C150.932 109.507 151.98 108.439 153.302 107.855C153.949 107.592 154.647 107.475 155.345 107.512C156.042 107.549 156.723 107.74 157.339 108.07L162.994 110.67C163.234 110.761 163.452 110.901 163.635 111.08C163.819 111.26 163.963 111.476 164.058 111.714C164.154 111.952 164.199 112.207 164.191 112.464C164.183 112.72 164.122 112.972 164.011 113.204C163.883 113.57 163.634 113.881 163.305 114.087C162.976 114.292 162.587 114.38 162.202 114.335C162.583 115.452 162.54 116.671 162.081 117.76C161.623 118.848 160.78 119.73 159.714 120.238C159.219 120.441 158.686 120.535 158.151 120.514C157.616 120.492 157.093 120.356 156.615 120.114C156.069 119.904 155.585 119.556 155.213 119.104C154.84 118.652 154.591 118.112 154.489 117.535C154.295 116.25 154.484 114.936 155.032 113.758L155.937 111.575C155.711 111.426 155.453 111.332 155.184 111.301C154.915 111.269 154.642 111.301 154.387 111.393C154.132 111.485 153.903 111.635 153.716 111.832C153.53 112.029 153.392 112.266 153.313 112.525C152.978 113.229 152.867 114.019 152.997 114.787C153.189 115.918 152.714 116.766 151.866 116.958C151.635 117.007 151.397 117.008 151.167 116.96C150.936 116.913 150.718 116.818 150.526 116.682C150.334 116.546 150.172 116.372 150.05 116.17C149.928 115.969 149.85 115.744 149.819 115.511C149.456 113.937 149.651 112.286 150.373 110.84ZM159.511 115.647C159.836 114.915 159.911 114.096 159.725 113.317L158.346 112.672L157.769 114.233C157.26 115.5 157.305 116.269 157.95 116.574C158.595 116.879 159.115 116.506 159.511 115.647Z" fill="#276DFF"/>
<path d="M156.028 102.912C155.771 102.88 155.523 102.794 155.302 102.659C155.081 102.524 154.891 102.344 154.744 102.13C154.598 101.916 154.499 101.674 154.453 101.419C154.407 101.164 154.416 100.902 154.478 100.651C154.527 100.278 154.7 99.9329 154.968 99.6703C155.237 99.4077 155.586 99.2431 155.96 99.2031C155.599 98.725 155.354 98.1702 155.242 97.5819C155.13 96.9936 155.155 96.3875 155.315 95.8105C155.983 92.7118 158.471 91.1513 161.976 91.909L167.461 93.0398C167.714 93.0771 167.956 93.1657 168.173 93.3002C168.389 93.4347 168.576 93.6124 168.722 93.822C168.867 94.0317 168.968 94.2689 169.018 94.5192C169.069 94.7694 169.067 95.0272 169.013 95.2768C168.96 95.5263 168.856 95.7623 168.708 95.97C168.559 96.1778 168.37 96.3528 168.151 96.4844C167.933 96.6161 167.689 96.7012 167.436 96.7351C167.184 96.769 166.926 96.7508 166.681 96.6813L161.479 95.5504C160.042 95.245 158.866 95.6859 158.572 97.0996C158.278 98.5132 159.149 99.6329 161.275 100.097L165.799 101.058C166.049 101.098 166.288 101.189 166.502 101.325C166.716 101.461 166.9 101.639 167.043 101.849C167.186 102.058 167.284 102.295 167.333 102.544C167.381 102.792 167.378 103.049 167.324 103.296C167.271 103.544 167.167 103.778 167.02 103.984C166.872 104.191 166.684 104.365 166.467 104.496C166.251 104.627 166.009 104.713 165.758 104.748C165.507 104.783 165.252 104.766 165.007 104.699L156.028 102.912Z" fill="#276DFF"/>
</svg>
