<svg width="143" height="143" viewBox="0 0 143 143" fill="none" xmlns="http://www.w3.org/2000/svg">
<circle cx="71.5" cy="71.5" r="65.5" fill="#F6F6F6" stroke="#276DFF" stroke-width="12"/>
<path d="M53.3 36.8C46.5 36.8 40.7 39.3 35.9 44.2C31.1 49.1 28.7 55.2 28.7 62.5C28.7 69.8 31.1 75.9 35.9 80.8C40.7 85.7 46.5 88.1 53.3 88.1C60 88.1 65.8 86 70.5 81.7C73.2 79.2 73.1 75.6 71 73.6C68.9 71.6 65.6 71.7 63.1 74C60.4 76.5 57.3 77.8 53.7 77.8C46 77.8 40.3 71.4 40.3 62.5C40.3 53.6 45.9 47.2 53.6 47.2C56.6 47.2 59.5 48.4 62.3 50.7C64.8 52.8 68.1 53 70.2 51C72.3 49 72.4 45.4 69.7 42.9C65.2 38.8 59.8 36.8 53.3 36.8Z" fill="#1C1C1C"/>
<path d="M86.8 58.8C79.7 58.8 73.7 61.3 68.8 66.2C63.9 71.1 61.5 77.2 61.5 84.5C61.5 91.8 63.9 97.9 68.8 102.8C73.7 107.7 79.7 110.1 86.8 110.1C93.9 110.1 99.8 107.7 104.7 102.8C109.6 97.9 112.1 91.8 112.1 84.5C112.1 77.2 109.6 71.1 104.7 66.2C99.8 61.3 93.9 58.8 86.8 58.8ZM86.8 99.8C78.8 99.8 73.1 93.4 73.1 84.5C73.1 75.6 78.8 69.2 86.8 69.2C90.7 69.2 94 70.6 96.5 73.5C99.1 76.4 100.4 80 100.4 84.5C100.4 89 99.1 92.6 96.5 95.5C94 98.4 90.7 99.8 86.8 99.8Z" fill="#1C1C1C"/>
</svg>
