<svg width="24" height="26" viewBox="0 0 24 26" fill="none" xmlns="http://www.w3.org/2000/svg">
<path d="M22.0004 17.9488V20.9642C22.0016 21.2442 21.9445 21.5212 21.8329 21.7777C21.7214 22.0342 21.5577 22.2645 21.3525 22.4537C21.1473 22.643 20.905 22.787 20.6412 22.8767C20.3773 22.9664 20.0978 22.9997 19.8204 22.9745C16.7433 22.6384 13.7874 21.5815 11.1904 19.8887C8.77425 18.3455 6.72576 16.2864 5.19042 13.8578C3.5004 11.2356 2.44866 8.25012 2.12042 5.14322C2.09543 4.86526 2.1283 4.58512 2.21692 4.32063C2.30555 4.05614 2.44799 3.8131 2.63519 3.60698C2.82238 3.40085 3.05023 3.23617 3.30421 3.1234C3.5582 3.01064 3.83276 2.95226 4.11042 2.952H7.11042C7.59573 2.9472 8.06621 3.11994 8.43418 3.43802C8.80215 3.75611 9.0425 4.19783 9.11042 4.68085C9.23704 5.64586 9.47187 6.59337 9.81042 7.50531C9.94497 7.86508 9.97408 8.25607 9.89433 8.63196C9.81457 9.00785 9.62928 9.35288 9.36042 9.62617L8.09042 10.9027C9.51398 13.4191 11.5869 15.5027 14.0904 16.9336L15.3604 15.657C15.6323 15.3868 15.9756 15.2006 16.3495 15.1204C16.7235 15.0402 17.1125 15.0695 17.4704 15.2047C18.3777 15.545 19.3204 15.7811 20.2804 15.9083C20.7662 15.9772 21.2098 16.2232 21.527 16.5994C21.8441 16.9756 22.0126 17.4558 22.0004 17.9488Z" stroke="#1C1C1C" stroke-linecap="round" stroke-linejoin="round"/>
</svg>
