<svg width="24" height="28" viewBox="0 0 24 28" fill="none" xmlns="http://www.w3.org/2000/svg">
<path d="M9.60283 14.4851V10.4219C5.25379 10.6415 2.24717 12.9477 1.33442 16.5167C0.604215 19.372 1.16294 21.7943 2.11341 23.302C3.63675 25.7185 7.12233 27.5973 10.9452 26.4552C14.768 25.3131 16.6129 22.2969 16.6901 18.6582V9.9277C19.3103 11.7287 21.3971 11.5933 22.1129 11.3004V7.67645C17.9465 6.92969 16.4754 3.37527 16.2606 1.69141H12.5559C12.6275 6.17561 12.7277 15.781 12.5559 18.3287C12.3841 20.8765 10.5156 22.1357 9.60283 22.4469C8.5648 22.7031 5.53619 22.6609 5.09277 19.5367C4.60959 16.1324 7.63415 14.9427 9.60283 14.4851Z" stroke="#1C1C1C" stroke-width="2" stroke-linecap="round" stroke-linejoin="round"/>
</svg>
